<svg width="10" height="10" viewBox="0 0 10 10" fill="none" xmlns="http://www.w3.org/2000/svg">
<path d="M9.37463 0.598833C9.10169 0.343412 8.73177 0.199951 8.34608 0.199951C7.96039 0.199951 7.59047 0.343412 7.31753 0.598833L0.788149 6.71867C0.601169 6.89293 0.452913 7.10022 0.35196 7.32854C0.251006 7.55686 0.199359 7.80167 0.200007 8.04882V8.82133C0.200007 8.92112 0.242304 9.01683 0.317592 9.0874C0.392881 9.15796 0.494995 9.19761 0.601469 9.19761H1.42567C1.68934 9.1983 1.95053 9.14998 2.19413 9.05542C2.43773 8.96086 2.65891 8.82195 2.84484 8.64673L9.37463 2.52652C9.64702 2.27072 9.8 1.92408 9.8 1.56268C9.8 1.20127 9.64702 0.854631 9.37463 0.598833ZM2.27717 8.11467C2.05075 8.32548 1.74482 8.44418 1.42567 8.44505H1.00293V8.04882C1.00253 7.90053 1.03351 7.75364 1.09408 7.61664C1.15465 7.47965 1.24361 7.35528 1.35582 7.25073L6.31107 2.60629L7.23443 3.47174L2.27717 8.11467ZM8.80656 1.99446L7.80049 2.9378L6.87713 2.07423L7.88359 1.13089C7.94422 1.07419 8.01617 1.02924 8.09534 0.998597C8.1745 0.967957 8.25933 0.952232 8.34498 0.95232C8.43063 0.952407 8.51542 0.968305 8.59452 0.999106C8.67361 1.02991 8.74546 1.07501 8.80595 1.13183C8.86645 1.18866 8.91441 1.2561 8.94711 1.3303C8.9798 1.4045 8.99657 1.48401 8.99648 1.56428C8.99639 1.64456 8.97942 1.72403 8.94656 1.79817C8.9137 1.8723 8.86558 1.93964 8.80495 1.99634L8.80656 1.99446Z" fill="white"/>
</svg>
