<svg width="10" height="12" viewBox="0 0 10 12" fill="none" xmlns="http://www.w3.org/2000/svg">
<path d="M9.66667 2.26669H7.33333V1.33336C7.33333 1.08582 7.235 0.848425 7.05997 0.673391C6.88493 0.498357 6.64754 0.400024 6.4 0.400024H3.6C3.35246 0.400024 3.11507 0.498357 2.94003 0.673391C2.765 0.848425 2.66667 1.08582 2.66667 1.33336V2.26669H0.333333V3.20002H1.26667V10.2C1.26667 10.5713 1.41417 10.9274 1.67672 11.19C1.93927 11.4525 2.29536 11.6 2.66667 11.6H7.33333C7.70464 11.6 8.06073 11.4525 8.32328 11.19C8.58583 10.9274 8.73333 10.5713 8.73333 10.2V3.20002H9.66667V2.26669ZM3.6 1.33336H6.4V2.26669H3.6V1.33336ZM7.8 10.2C7.8 10.3238 7.75083 10.4425 7.66332 10.53C7.5758 10.6175 7.4571 10.6667 7.33333 10.6667H2.66667C2.5429 10.6667 2.4242 10.6175 2.33668 10.53C2.24917 10.4425 2.2 10.3238 2.2 10.2V3.20002H7.8V10.2Z" fill="white"/>
<path d="M4.53333 5.06665H3.6V8.79998H4.53333V5.06665Z" fill="white"/>
<path d="M6.4 5.06665H5.46667V8.79998H6.4V5.06665Z" fill="white"/>
</svg>
