<svg width="20" height="18" viewBox="0 0 20 18" fill="none" xmlns="http://www.w3.org/2000/svg">
<path d="M19.1667 15.8333V14.1667C19.1636 11.8811 18.3077 9.67898 16.7663 7.99137C15.225 6.30375 13.1093 5.25218 10.8333 5.04251V3.93585C11.1511 3.7524 11.3994 3.46924 11.5398 3.13028C11.6802 2.79132 11.7048 2.4155 11.6099 2.06111C11.5149 1.70672 11.3057 1.39357 11.0146 1.17022C10.7235 0.946868 10.3669 0.825806 10 0.825806C9.63311 0.825806 9.27647 0.946868 8.9854 1.17022C8.69432 1.39357 8.48508 1.70672 8.39012 2.06111C8.29517 2.4155 8.3198 2.79132 8.4602 3.13028C8.6006 3.46924 8.84893 3.7524 9.16667 3.93585V5.04251C6.89074 5.25218 4.77501 6.30375 3.23367 7.99137C1.69233 9.67898 0.836359 11.8811 0.833333 14.1667V15.8333C0.61232 15.8333 0.400358 15.9211 0.244078 16.0774C0.0877974 16.2337 0 16.4457 0 16.6667C0 16.8877 0.0877974 17.0997 0.244078 17.2559C0.400358 17.4122 0.61232 17.5 0.833333 17.5H19.1667C19.3877 17.5 19.5996 17.4122 19.7559 17.2559C19.9122 17.0997 20 16.8877 20 16.6667C20 16.4457 19.9122 16.2337 19.7559 16.0774C19.5996 15.9211 19.3877 15.8333 19.1667 15.8333ZM2.5 14.1667C2.89417 4.22168 17.1092 4.22918 17.5 14.1667V15.8333H2.5V14.1667Z" fill="white"/>
</svg>
