<svg width="18" height="20" viewBox="0 0 18 20" fill="none" xmlns="http://www.w3.org/2000/svg">
<path d="M17.4049 3.33333H13.2383V1.66667C13.2383 1.22464 13.0627 0.800716 12.7501 0.488155C12.4376 0.175595 12.0136 0 11.5716 0L6.57161 0C6.12959 0 5.70566 0.175595 5.3931 0.488155C5.08054 0.800716 4.90495 1.22464 4.90495 1.66667V3.33333H0.738281V5H2.40495V17.5C2.40495 18.163 2.66834 18.7989 3.13718 19.2678C3.60602 19.7366 4.24191 20 4.90495 20H13.2383C13.9013 20 14.5372 19.7366 15.006 19.2678C15.4749 18.7989 15.7383 18.163 15.7383 17.5V5H17.4049V3.33333ZM6.57161 1.66667H11.5716V3.33333H6.57161V1.66667ZM14.0716 17.5C14.0716 17.721 13.9838 17.933 13.8275 18.0893C13.6713 18.2455 13.4593 18.3333 13.2383 18.3333H4.90495C4.68393 18.3333 4.47197 18.2455 4.31569 18.0893C4.15941 17.933 4.07161 17.721 4.07161 17.5V5H14.0716V17.5Z" fill="#AAAAAA"/>
<path d="M8.23796 8.3335H6.57129V15.0002H8.23796V8.3335Z" fill="#AAAAAA"/>
<path d="M11.5719 8.3335H9.90527V15.0002H11.5719V8.3335Z" fill="#AAAAAA"/>
</svg>
