<svg width="20" height="20" viewBox="0 0 20 20" fill="none" xmlns="http://www.w3.org/2000/svg">
<path d="M15.8333 4.16732H14.0833C13.8899 3.22683 13.3782 2.38177 12.6344 1.77458C11.8906 1.16739 10.9602 0.835196 10 0.833984H4.16667C3.062 0.835308 2.00296 1.27472 1.22185 2.05583C0.440735 2.83695 0.00132321 3.89599 0 5.00065L0 12.5007C0.00209484 13.247 0.254615 13.9711 0.717113 14.5569C1.17961 15.1427 1.82533 15.5563 2.55083 15.7315C2.4723 16.1485 2.48572 16.5777 2.59016 16.989C2.69459 17.4003 2.88753 17.7839 3.1555 18.113C3.42347 18.442 3.76001 18.7086 4.14166 18.8942C4.5233 19.0798 4.94084 19.1799 5.36514 19.1874C5.78944 19.195 6.21029 19.1099 6.5983 18.938C6.98631 18.7662 7.33215 18.5117 7.61168 18.1924C7.8912 17.8731 8.09768 17.4966 8.21671 17.0893C8.33574 16.682 8.36445 16.2536 8.30083 15.834H11.7025C11.6811 15.9719 11.6696 16.1111 11.6683 16.2507C11.6683 17.0242 11.9756 17.7661 12.5226 18.313C13.0696 18.86 13.8115 19.1673 14.585 19.1673C15.3585 19.1673 16.1004 18.86 16.6474 18.313C17.1944 17.7661 17.5017 17.0242 17.5017 16.2507C17.5007 16.0764 17.4837 15.9026 17.4508 15.7315C18.176 15.556 18.8214 15.1422 19.2835 14.5564C19.7457 13.9707 19.998 13.2468 20 12.5007V8.33398C19.9987 7.22932 19.5593 6.17028 18.7782 5.38917C17.997 4.60805 16.938 4.16864 15.8333 4.16732ZM18.3333 8.33398V9.16732H14.1667V5.83398H15.8333C16.4964 5.83398 17.1323 6.09738 17.6011 6.56622C18.0699 7.03506 18.3333 7.67094 18.3333 8.33398ZM1.66667 12.5007V5.00065C1.66667 4.33761 1.93006 3.70173 2.3989 3.23288C2.86774 2.76404 3.50363 2.50065 4.16667 2.50065H10C10.663 2.50065 11.2989 2.76404 11.7678 3.23288C12.2366 3.70173 12.5 4.33761 12.5 5.00065V14.1673H3.33333C2.89131 14.1673 2.46738 13.9917 2.15482 13.6792C1.84226 13.3666 1.66667 12.9427 1.66667 12.5007ZM6.66667 16.2507C6.66667 16.5822 6.53497 16.9001 6.30055 17.1345C6.06613 17.369 5.74819 17.5007 5.41667 17.5007C5.08515 17.5007 4.7672 17.369 4.53278 17.1345C4.29836 16.9001 4.16667 16.5822 4.16667 16.2507C4.16718 16.1082 4.19343 15.9671 4.24417 15.834H6.58917C6.6399 15.9671 6.66615 16.1082 6.66667 16.2507ZM14.5833 17.5007C14.2518 17.5007 13.9339 17.369 13.6995 17.1345C13.465 16.9001 13.3333 16.5822 13.3333 16.2507C13.3337 16.1082 13.36 15.967 13.4108 15.834H15.7558C15.8067 15.967 15.833 16.1082 15.8333 16.2507C15.8333 16.5822 15.7016 16.9001 15.4672 17.1345C15.2328 17.369 14.9149 17.5007 14.5833 17.5007ZM16.6667 14.1673H14.1667V10.834H18.3333V12.5007C18.3333 12.9427 18.1577 13.3666 17.8452 13.6792C17.5326 13.9917 17.1087 14.1673 16.6667 14.1673Z" fill="white"/>
</svg>
