<svg width="20" height="20" viewBox="0 0 20 20" fill="none" xmlns="http://www.w3.org/2000/svg">
<g clip-path="url(#clip0_938_187)">
<path d="M14.2625 6.7083C14.0236 6.77177 13.8089 6.90467 13.6455 7.09018C13.4821 7.27569 13.3774 7.50549 13.3446 7.75051C13.3117 7.99553 13.3523 8.24478 13.4612 8.46674C13.57 8.6887 13.7422 8.8734 13.956 8.99749C14.1698 9.12158 14.4157 9.17949 14.6624 9.16389C14.9091 9.14829 15.1456 9.05989 15.3421 8.90986C15.5386 8.75983 15.6862 8.55491 15.7662 8.32101C15.8462 8.08711 15.8551 7.83474 15.7917 7.59579C15.7496 7.4371 15.6766 7.28826 15.577 7.15776C15.4773 7.02727 15.353 6.91769 15.211 6.83527C15.0689 6.75286 14.9121 6.69922 14.7494 6.67744C14.5866 6.65565 14.4212 6.66614 14.2625 6.7083Z" fill="white"/>
<path d="M10.0958 4.20829C9.85685 4.27177 9.64212 4.40467 9.47872 4.59018C9.31533 4.77569 9.21061 5.00549 9.1778 5.25051C9.145 5.49553 9.18558 5.74478 9.29443 5.96674C9.40327 6.1887 9.57548 6.3734 9.78929 6.49749C10.0031 6.62158 10.2489 6.67949 10.4956 6.66389C10.7423 6.64829 10.9789 6.55989 11.1754 6.40986C11.3718 6.25983 11.5194 6.05491 11.5994 5.82101C11.6795 5.58711 11.6883 5.33474 11.6249 5.09579C11.5828 4.9371 11.5099 4.78826 11.4102 4.65776C11.3106 4.52727 11.1862 4.41769 11.0442 4.33527C10.9022 4.25286 10.7454 4.19922 10.5826 4.17744C10.4199 4.15565 10.2545 4.16614 10.0958 4.20829Z" fill="white"/>
<path d="M5.92915 6.7083C5.69023 6.77177 5.47549 6.90467 5.3121 7.09018C5.1487 7.27569 5.04398 7.50549 5.01118 7.75051C4.97837 7.99553 5.01896 8.24478 5.1278 8.46674C5.23664 8.6887 5.40886 8.8734 5.62267 8.99749C5.83648 9.12158 6.08228 9.17949 6.32899 9.16389C6.57571 9.14829 6.81226 9.05989 7.00874 8.90986C7.20522 8.75983 7.3528 8.55491 7.43282 8.32101C7.51284 8.08711 7.52171 7.83474 7.45831 7.59579C7.4162 7.4371 7.34324 7.28826 7.2436 7.15776C7.14396 7.02727 7.01958 6.91769 6.87758 6.83527C6.73558 6.75286 6.57873 6.69922 6.41599 6.67744C6.25326 6.65565 6.08783 6.66614 5.92915 6.7083Z" fill="white"/>
<path d="M5.92915 11.7083C5.69023 11.7718 5.47549 11.9047 5.3121 12.0902C5.1487 12.2757 5.04398 12.5055 5.01118 12.7505C4.97837 12.9955 5.01896 13.2448 5.1278 13.4667C5.23664 13.6887 5.40886 13.8734 5.62267 13.9975C5.83648 14.1216 6.08228 14.1795 6.32899 14.1639C6.57571 14.1483 6.81226 14.0599 7.00874 13.9099C7.20522 13.7598 7.3528 13.5549 7.43282 13.321C7.51284 13.0871 7.52171 12.8347 7.45831 12.5958C7.4162 12.4371 7.34324 12.2883 7.2436 12.1578C7.14396 12.0273 7.01958 11.9177 6.87758 11.8353C6.73558 11.7529 6.57873 11.6992 6.41599 11.6774C6.25326 11.6556 6.08783 11.6661 5.92915 11.7083Z" fill="white"/>
<path d="M10.4167 0.00579584C9.07504 -0.0408556 7.7377 0.183121 6.48444 0.664373C5.23117 1.14562 4.08764 1.8743 3.12202 2.80695C2.15639 3.7396 1.38845 4.85714 0.863959 6.09293C0.339473 7.32873 0.0691862 8.65748 0.0692139 9.99996C0.0723016 12.6512 1.12686 15.1929 3.00156 17.0676C4.87625 18.9423 7.418 19.9969 10.0692 20C10.3509 20 10.6275 19.9816 10.9025 19.9583C11.1112 19.9407 11.3056 19.8452 11.4471 19.6908C11.5885 19.5364 11.6666 19.3344 11.6659 19.125L11.6392 16.135C11.6325 15.5441 11.802 14.9646 12.1261 14.4706C12.4502 13.9765 12.9142 13.5902 13.4589 13.3611C14.0035 13.132 14.6041 13.0704 15.184 13.1842C15.7638 13.2979 16.2965 13.582 16.7142 14L16.7975 14.0833C16.9867 14.2741 17.2211 14.4139 17.4788 14.4899C17.7366 14.5658 18.0093 14.5753 18.2717 14.5175C18.5299 14.4633 18.7703 14.345 18.9708 14.1737C19.1713 14.0023 19.3255 13.7832 19.4192 13.5366C19.8793 12.3285 20.0993 11.0423 20.0667 9.74996C19.9729 7.21164 18.9289 4.8012 17.1415 2.99641C15.3542 1.19162 12.954 0.124223 10.4167 0.00579584ZM17.9017 12.8391L17.89 12.8275C17.2387 12.1772 16.4086 11.7353 15.5054 11.5582C14.6021 11.381 13.6666 11.4765 12.8179 11.8325C11.9691 12.1886 11.2454 12.7891 10.7389 13.5576C10.2324 14.3261 9.9659 15.2279 9.97338 16.1483L9.99338 18.3333C7.78324 18.3234 5.66758 17.4358 4.11181 15.866C2.55604 14.2962 1.6876 12.1726 1.69755 9.96246C1.70749 7.75233 2.595 5.63666 4.16484 4.08089C5.73468 2.52512 7.85824 1.65668 10.0684 1.66663C10.1659 1.66663 10.2642 1.66663 10.3625 1.67163C12.4762 1.77091 14.4754 2.66058 15.9641 4.16435C17.4527 5.66812 18.3221 7.67625 18.4 9.7908C18.4276 10.8271 18.2593 11.8593 17.9042 12.8333L17.9017 12.8391Z" fill="white"/>
</g>
<defs>
<clipPath id="clip0_938_187">
<rect width="20" height="20" fill="white"/>
</clipPath>
</defs>
</svg>
