<svg width="20" height="20" viewBox="0 0 20 20" fill="none" xmlns="http://www.w3.org/2000/svg">
<g clip-path="url(#clip0_897_581)">
<path d="M19.3925 7.84916C18.1 5.74416 15.16 2.21249 10 2.21249C4.84 2.21249 1.9 5.74416 0.607501 7.84916C0.207941 8.49542 -0.00370407 9.2402 -0.00370407 9.99999C-0.00370407 10.7598 0.207941 11.5046 0.607501 12.1508C1.9 14.2558 4.84 17.7875 10 17.7875C15.16 17.7875 18.1 14.2558 19.3925 12.1508C19.7921 11.5046 20.0037 10.7598 20.0037 9.99999C20.0037 9.2402 19.7921 8.49542 19.3925 7.84916V7.84916ZM17.9717 11.2783C16.8617 13.0833 14.3492 16.1208 10 16.1208C5.65083 16.1208 3.13833 13.0833 2.02833 11.2783C1.79095 10.8942 1.66521 10.4516 1.66521 9.99999C1.66521 9.54843 1.79095 9.10579 2.02833 8.72166C3.13833 6.91666 5.65083 3.87916 10 3.87916C14.3492 3.87916 16.8617 6.91333 17.9717 8.72166C18.2091 9.10579 18.3348 9.54843 18.3348 9.99999C18.3348 10.4516 18.2091 10.8942 17.9717 11.2783V11.2783Z" fill="#778CA2"/>
<path d="M10 5.83333C9.17591 5.83333 8.37033 6.0777 7.68512 6.53554C6.99992 6.99338 6.46587 7.64412 6.1505 8.40548C5.83514 9.16684 5.75262 10.0046 5.9134 10.8129C6.07417 11.6211 6.471 12.3636 7.05372 12.9463C7.63644 13.529 8.37887 13.9258 9.18712 14.0866C9.99538 14.2474 10.8332 14.1649 11.5945 13.8495C12.3559 13.5341 13.0066 13.0001 13.4645 12.3149C13.9223 11.6297 14.1667 10.8241 14.1667 10C14.1653 8.89533 13.7259 7.83629 12.9448 7.05518C12.1637 6.27406 11.1047 5.83465 10 5.83333V5.83333ZM10 12.5C9.50555 12.5 9.0222 12.3534 8.61107 12.0787C8.19995 11.804 7.87952 11.4135 7.6903 10.9567C7.50108 10.4999 7.45157 9.99722 7.54804 9.51227C7.6445 9.02732 7.8826 8.58186 8.23223 8.23223C8.58186 7.8826 9.02732 7.64449 9.51227 7.54803C9.99723 7.45157 10.4999 7.50108 10.9567 7.6903C11.4135 7.87952 11.804 8.19995 12.0787 8.61107C12.3534 9.02219 12.5 9.50554 12.5 10C12.5 10.663 12.2366 11.2989 11.7678 11.7678C11.2989 12.2366 10.663 12.5 10 12.5Z" fill="#778CA2"/>
</g>
<defs>
<clipPath id="clip0_897_581">
<rect width="20" height="20" fill="white"/>
</clipPath>
</defs>
</svg>
