<svg width="30" height="30" viewBox="0 0 30 30" fill="none" xmlns="http://www.w3.org/2000/svg">
<circle cx="15" cy="15" r="15" fill="#0079C2"/>
<path d="M16.5615 8.7417C16.5615 8.76904 16.6128 8.82031 16.7153 8.89551C16.8179 8.96387 16.9443 9.04932 17.0947 9.15186C17.2451 9.24756 17.4092 9.3501 17.5869 9.45947C17.7646 9.56885 17.9287 9.6748 18.0791 9.77734C18.2295 9.87988 18.356 9.97559 18.4585 10.0645C18.561 10.1465 18.6123 10.208 18.6123 10.249C18.6123 10.2969 18.585 10.3413 18.5303 10.3823C18.4482 10.4507 18.3765 10.6284 18.3149 10.9155C18.2603 11.2026 18.2158 11.5684 18.1816 12.0127C18.1543 12.457 18.1338 12.9629 18.1201 13.5303C18.1064 14.0977 18.0996 14.6992 18.0996 15.335C18.0996 15.4785 18.0996 15.5708 18.0996 15.6118C18.0996 15.6528 18.0996 15.6699 18.0996 15.6631C18.0996 15.6494 18.0996 15.6255 18.0996 15.5913C18.1064 15.5571 18.1099 15.54 18.1099 15.54C18.1167 15.5332 18.1201 15.5537 18.1201 15.6016C18.1201 15.6494 18.1235 15.752 18.1304 15.9092C18.144 16.374 18.1577 16.7808 18.1714 17.1294C18.1919 17.4712 18.209 17.7959 18.2227 18.1035C18.2432 18.4111 18.2637 18.7153 18.2842 19.0161C18.3047 19.3169 18.3252 19.6553 18.3457 20.0312C18.3799 20.7764 18.4141 21.3916 18.4482 21.877C18.4893 22.3623 18.5234 22.7246 18.5508 22.9639C18.5576 22.9844 18.561 23.0117 18.561 23.0459C18.561 23.0869 18.5405 23.1074 18.4995 23.1074C18.4448 23.1074 18.4004 23.0835 18.3662 23.0356C18.332 22.9878 18.2808 22.9263 18.2124 22.8511C18.144 22.7827 18.0483 22.7041 17.9253 22.6152C17.8022 22.5264 17.6245 22.4443 17.3921 22.3691C17.1597 22.2939 16.9717 22.2461 16.8281 22.2256C16.6914 22.2051 16.582 22.188 16.5 22.1743C16.4248 22.1675 16.3735 22.1538 16.3462 22.1333C16.3257 22.1128 16.3154 22.0649 16.3154 21.9897C16.3154 21.9556 16.3154 21.9351 16.3154 21.9282C16.3223 21.9146 16.3291 21.9009 16.3359 21.8872C16.3496 21.8735 16.3804 21.4326 16.4282 20.5645C16.4761 19.6963 16.5068 18.3975 16.5205 16.668C16.5205 16.5928 16.5273 16.5518 16.541 16.5449C16.5547 16.5312 16.5547 16.5244 16.541 16.5244V15.0068C16.3975 15.041 16.2471 15.0718 16.0898 15.0991C15.9326 15.1265 15.7686 15.147 15.5977 15.1606C15.5498 15.3247 15.4849 15.5435 15.4028 15.8169C15.3208 16.0835 15.2319 16.3638 15.1362 16.6577C15.0405 16.9448 14.9414 17.2217 14.8389 17.4883C14.7432 17.7549 14.6543 17.9702 14.5723 18.1343C14.3672 18.5444 14.145 18.9443 13.9058 19.334C13.6665 19.7168 13.417 20.103 13.1572 20.4927C12.8975 20.8823 12.6274 21.2446 12.3472 21.5796C12.0737 21.9077 11.7935 22.2153 11.5063 22.5024C11.1099 22.9058 10.7339 23.1929 10.3784 23.3638C10.0229 23.5347 9.65723 23.6201 9.28125 23.6201C8.98047 23.6201 8.69336 23.562 8.41992 23.4458C8.14648 23.3296 7.89355 23.1826 7.66113 23.0049C7.42871 22.834 7.22021 22.6426 7.03564 22.4307C6.85791 22.2256 6.70752 22.0308 6.58447 21.8462C6.4751 21.6753 6.37939 21.5386 6.29736 21.436C6.21533 21.3267 6.14355 21.2412 6.08203 21.1797C6.02734 21.1113 5.98633 21.0566 5.95898 21.0156C5.93164 20.9746 5.91797 20.9336 5.91797 20.8926C5.91797 20.8516 5.93506 20.8208 5.96924 20.8003C6.00342 20.7798 6.04102 20.7695 6.08203 20.7695C6.14355 20.7695 6.18799 20.7832 6.21533 20.8105C6.24268 20.8379 6.2666 20.8721 6.28711 20.9131C6.31445 20.9473 6.34521 20.9849 6.37939 21.0259C6.41357 21.0669 6.46143 21.1045 6.52295 21.1387C6.70068 21.2275 6.89209 21.2959 7.09717 21.3438C7.30225 21.3916 7.51416 21.4155 7.73291 21.4155C8.24561 21.4155 8.79248 21.2925 9.37354 21.0464C9.95459 20.8003 10.5493 20.4312 11.1577 19.939C11.5679 19.6245 11.9473 19.2793 12.2959 18.9033C12.6445 18.5273 12.9761 18.1172 13.2905 17.6729C13.8647 16.8662 14.2988 16.0493 14.5928 15.2222C14.5039 15.2222 14.415 15.2222 14.3262 15.2222C14.2441 15.2153 14.1621 15.2085 14.0801 15.2017C13.7314 15.1743 13.3828 15.1162 13.0342 15.0273C12.6855 14.9316 12.3506 14.7949 12.0293 14.6172C11.7148 14.4395 11.4243 14.2173 11.1577 13.9507C10.8911 13.6772 10.6621 13.3457 10.4707 12.9561C10.2041 12.4023 10.0571 11.8486 10.0298 11.2949C10.0024 10.7412 10.0708 10.208 10.2349 9.69531C10.4058 9.17578 10.6587 8.68359 10.9937 8.21875C11.3286 7.75391 11.7251 7.33691 12.1831 6.96777C12.6479 6.5918 13.1606 6.27393 13.7212 6.01416C14.2886 5.74756 14.8833 5.55615 15.5054 5.43994C16.2915 5.29639 17.0811 5.26562 17.874 5.34766C18.6738 5.42969 19.4189 5.61084 20.1094 5.89111C20.8066 6.16455 21.415 6.53027 21.9346 6.98828C22.4609 7.44629 22.8438 7.97607 23.083 8.57764C23.1924 8.85107 23.2778 9.13477 23.3394 9.42871C23.4009 9.72266 23.4248 10.0098 23.4111 10.29C23.3975 10.5635 23.3359 10.8198 23.2266 11.0591C23.1172 11.2915 22.9497 11.4863 22.7241 11.6436C22.5601 11.7734 22.3618 11.8589 22.1294 11.8999C21.9038 11.9409 21.6646 11.9341 21.4116 11.8794C21.1587 11.8247 20.9058 11.7188 20.6528 11.5615C20.4067 11.3975 20.1812 11.1787 19.9761 10.9053C19.9761 10.8984 19.9624 10.8779 19.9351 10.8438C19.9077 10.8027 19.877 10.7617 19.8428 10.7207C19.8086 10.6797 19.7778 10.6421 19.7505 10.6079C19.7231 10.5737 19.7095 10.5498 19.7095 10.5361C19.6069 10.4336 19.5386 10.3345 19.5044 10.2388C19.4771 10.1431 19.4702 10.0371 19.4839 9.9209C19.4839 9.8457 19.4976 9.77051 19.5249 9.69531C19.5522 9.62012 19.583 9.57227 19.6172 9.55176C19.624 9.54492 19.6309 9.53809 19.6377 9.53125C19.6514 9.51758 19.6616 9.521 19.6685 9.5415C19.6821 9.55518 19.6992 9.59277 19.7197 9.6543C19.7402 9.70898 19.7676 9.80127 19.8018 9.93115C19.8564 10.1636 19.9351 10.3413 20.0376 10.4644C20.1401 10.5806 20.2529 10.6558 20.376 10.6899C20.499 10.7241 20.6221 10.7207 20.7451 10.6797C20.875 10.6387 20.9912 10.5771 21.0938 10.4951C21.374 10.0645 21.5244 9.62354 21.5449 9.17236C21.5654 8.71436 21.4834 8.28027 21.2988 7.87012C21.1416 7.52148 20.9126 7.21729 20.6118 6.95752C20.311 6.69775 19.9692 6.48584 19.5864 6.32178C19.2104 6.15088 18.8037 6.02783 18.3662 5.95264C17.9355 5.87061 17.5083 5.83301 17.0845 5.83984C16.6675 5.83984 16.2676 5.88428 15.8848 5.97314C15.502 6.05518 15.1704 6.17822 14.8901 6.34229C14.4663 6.58838 14.0903 6.88232 13.7622 7.22412C13.4341 7.56592 13.1572 7.93506 12.9316 8.33154C12.7061 8.72803 12.5283 9.14844 12.3984 9.59277C12.2754 10.0303 12.2036 10.4678 12.1831 10.9053C12.1694 11.3154 12.2002 11.7119 12.2754 12.0947C12.3506 12.4775 12.4736 12.8296 12.6445 13.1509C12.8154 13.4653 13.0342 13.7422 13.3008 13.9814C13.5674 14.2139 13.8853 14.3916 14.2544 14.5146C14.521 14.6104 14.8594 14.6616 15.2695 14.6685C15.6865 14.6685 16.1104 14.6309 16.541 14.5557C16.541 14.1797 16.5376 13.814 16.5308 13.4585C16.5308 13.0962 16.5308 12.7441 16.5308 12.4023C16.5239 12.0674 16.5239 11.7222 16.5308 11.3667C16.5376 11.0044 16.5444 10.6592 16.5513 10.3311C16.5581 9.99609 16.5615 9.69189 16.5615 9.41846C16.5684 9.13818 16.5684 8.9126 16.5615 8.7417Z" fill="white"/>
</svg>
