<svg width="40" height="40" viewBox="0 0 40 40" fill="none" xmlns="http://www.w3.org/2000/svg">
<path d="M6.72217 3.90692L13.2367 0.0410156L19.7512 3.90692V11.5972L13.1952 15.4215L6.72217 11.5972V3.90692Z" fill="#009DE0"/>
<path d="M0 16.0046L6.51452 12.1387L13.029 16.0046V23.6948L6.47303 27.5192L0 23.6948V16.0046Z" fill="#49AD33"/>
<path d="M13.5269 16.0046L20.0414 12.1387L26.5559 16.0046V23.6948L19.9999 27.5192L13.5269 23.6948V16.0046Z" fill="#FFEC01"/>
<path d="M26.9712 16.0046L33.4857 12.1387L40.0002 16.0046V23.6948L33.4442 27.5192L26.9712 23.6948V16.0046Z" fill="#009DE0"/>
<path d="M20.249 27.9753L26.7635 24.1094L33.2781 27.9753V35.6655L26.7221 39.4899L20.249 35.6655V27.9753Z" fill="#E40079"/>
<path d="M6.72217 27.9753L13.2367 24.1094L19.7512 27.9753V35.6655L13.1952 39.4899L6.72217 35.6655V27.9753Z" fill="#FFEC01"/>
<path d="M20 3.86591L26.5145 0L33.029 3.86591V11.5562L26.473 15.3805L20 11.5562V3.86591Z" fill="#EBAA32"/>
</svg>
