<svg width="16" height="16" viewBox="0 0 16 16" fill="none" xmlns="http://www.w3.org/2000/svg">
<path d="M1.33333 14V2C1.33333 1.82319 1.40357 1.65362 1.5286 1.5286C1.65362 1.40357 1.82319 1.33333 2 1.33333H5.33333V0H2C1.46957 0 0.960859 0.210714 0.585786 0.585786C0.210714 0.960859 0 1.46957 0 2L0 14C0 14.5304 0.210714 15.0391 0.585786 15.4142C0.960859 15.7893 1.46957 16 2 16H5.33333V14.6667H2C1.82319 14.6667 1.65362 14.5964 1.5286 14.4714C1.40357 14.3464 1.33333 14.1768 1.33333 14Z" fill="black"/>
<path d="M15.4154 6.5859L12.358 3.52856L11.4154 4.47123L14.258 7.3139L3.33337 7.33323V8.66656L14.2954 8.64723L11.414 11.5286L12.3567 12.4712L15.414 9.4139C15.7892 9.03902 16 8.5305 16.0003 8.00017C16.0005 7.46985 15.7901 6.96113 15.4154 6.5859Z" fill="black"/>
</svg>
