<svg width="20" height="20" viewBox="0 0 20 20" fill="none" xmlns="http://www.w3.org/2000/svg">
<path d="M14.1667 8.33333C10.9508 8.33333 8.33333 10.95 8.33333 14.1667C8.33333 17.3833 10.9508 20 14.1667 20C17.3825 20 20 17.3833 20 14.1667C20 10.95 17.3825 8.33333 14.1667 8.33333ZM14.1667 18.3333C11.8692 18.3333 10 16.4642 10 14.1667C10 11.8692 11.8692 10 14.1667 10C16.4642 10 18.3333 11.8692 18.3333 14.1667C18.3333 16.4642 16.4642 18.3333 14.1667 18.3333ZM15.5892 14.4108C15.915 14.7367 15.915 15.2633 15.5892 15.5892C15.4267 15.7517 15.2133 15.8333 15 15.8333C14.7867 15.8333 14.5733 15.7517 14.4108 15.5892L13.5775 14.7558C13.4208 14.5992 13.3333 14.3875 13.3333 14.1667V12.5C13.3333 12.04 13.7058 11.6667 14.1667 11.6667C14.6275 11.6667 15 12.04 15 12.5V13.8217L15.5892 14.4108ZM7.5 18.3333H4.16667C2.78833 18.3333 1.66667 17.2117 1.66667 15.8333V11.6667H6.66667C7.1275 11.6667 7.5 11.2933 7.5 10.8333C7.5 10.3733 7.1275 10 6.66667 10H1.66667V7.5C1.66667 6.12167 2.78833 5 4.16667 5H15.8333C17.2117 5 18.3333 6.12167 18.3333 7.5C18.3333 7.96 18.7058 8.33333 19.1667 8.33333C19.6275 8.33333 20 7.96 20 7.5C20 5.2025 18.1308 3.33333 15.8333 3.33333H14.9158C14.5283 1.43417 12.845 0 10.8333 0H9.16667C7.155 0 5.47083 1.43417 5.08417 3.33333H4.16667C1.86917 3.33333 0 5.2025 0 7.5V15.8333C0 18.1308 1.86917 20 4.16667 20H7.5C7.96083 20 8.33333 19.6267 8.33333 19.1667C8.33333 18.7067 7.96083 18.3333 7.5 18.3333ZM9.16667 1.66667H10.8333C11.92 1.66667 12.8458 2.36333 13.19 3.33333H6.81C7.15417 2.36333 8.08 1.66667 9.16667 1.66667Z" fill="white"/>
</svg>
