<svg width="18" height="20" viewBox="0 0 18 20" fill="none" xmlns="http://www.w3.org/2000/svg">
<path d="M13.1667 11.6667C13.1667 11.8877 13.0789 12.0996 12.9226 12.2559C12.7663 12.4122 12.5544 12.5 12.3334 12.5H5.66669C5.44567 12.5 5.23371 12.4122 5.07743 12.2559C4.92115 12.0996 4.83335 11.8877 4.83335 11.6667C4.83335 11.4456 4.92115 11.2337 5.07743 11.0774C5.23371 10.9211 5.44567 10.8333 5.66669 10.8333H12.3334C12.5544 10.8333 12.7663 10.9211 12.9226 11.0774C13.0789 11.2337 13.1667 11.4456 13.1667 11.6667ZM9.83335 14.1667H5.66669C5.44567 14.1667 5.23371 14.2545 5.07743 14.4107C4.92115 14.567 4.83335 14.779 4.83335 15C4.83335 15.221 4.92115 15.433 5.07743 15.5893C5.23371 15.7455 5.44567 15.8333 5.66669 15.8333H9.83335C10.0544 15.8333 10.2663 15.7455 10.4226 15.5893C10.5789 15.433 10.6667 15.221 10.6667 15C10.6667 14.779 10.5789 14.567 10.4226 14.4107C10.2663 14.2545 10.0544 14.1667 9.83335 14.1667ZM17.3334 8.7375V15.8333C17.332 16.938 16.8926 17.997 16.1115 18.7781C15.3304 19.5593 14.2713 19.9987 13.1667 20H4.83335C3.72869 19.9987 2.66965 19.5593 1.88854 18.7781C1.10742 17.997 0.66801 16.938 0.666687 15.8333V4.16666C0.66801 3.062 1.10742 2.00296 1.88854 1.22185C2.66965 0.440731 3.72869 0.00131953 4.83335 -3.68095e-06H8.59585C9.3622 -0.00197612 10.1213 0.147986 10.8294 0.441212C11.5374 0.734439 12.1803 1.16511 12.7209 1.70833L15.6242 4.61333C16.1677 5.15353 16.5987 5.79621 16.892 6.50414C17.1854 7.21207 17.3354 7.97118 17.3334 8.7375ZM11.5425 2.88666C11.2803 2.63263 10.9858 2.4141 10.6667 2.23666V5.83333C10.6667 6.05434 10.7545 6.2663 10.9108 6.42259C11.067 6.57887 11.279 6.66666 11.5 6.66666H15.0967C14.9192 6.34765 14.7003 6.05345 14.4459 5.79166L11.5425 2.88666ZM15.6667 8.7375C15.6667 8.6 15.64 8.46833 15.6275 8.33333H11.5C10.837 8.33333 10.2011 8.06994 9.73225 7.6011C9.26341 7.13226 9.00002 6.49637 9.00002 5.83333V1.70583C8.86502 1.69333 8.73252 1.66666 8.59585 1.66666H4.83335C4.17031 1.66666 3.53443 1.93006 3.06559 2.3989C2.59675 2.86774 2.33335 3.50362 2.33335 4.16666V15.8333C2.33335 16.4964 2.59675 17.1323 3.06559 17.6011C3.53443 18.0699 4.17031 18.3333 4.83335 18.3333H13.1667C13.8297 18.3333 14.4656 18.0699 14.9345 17.6011C15.4033 17.1323 15.6667 16.4964 15.6667 15.8333V8.7375Z" fill="white"/>
</svg>
