<svg width="16" height="16" viewBox="0 0 16 16" fill="none" xmlns="http://www.w3.org/2000/svg">
<path d="M0.895315 4.82596C0.307477 3.74423 0.00183618 2.53176 0.00664774 1.30063C0.00650099 1.04367 0.0825869 0.792441 0.225276 0.57874C0.367966 0.365039 0.570844 0.198471 0.808236 0.100117C1.04563 0.00176277 1.30686 -0.0239564 1.55888 0.0262143C1.81089 0.0763851 2.04236 0.200191 2.22398 0.381962L5.65731 4.0413C5.44856 4.481 5.33909 4.96123 5.33665 5.44796C5.33665 5.5233 5.35331 5.59596 5.35798 5.67063L1.33998 1.38663C1.34849 2.36363 1.59639 3.32365 2.06198 4.18263C2.82827 5.65566 3.83422 6.99099 5.03865 8.13396L4.09531 9.08063C2.79508 7.85415 1.71297 6.4154 0.895315 4.82596V4.82596ZM8.60798 10.2206L7.57932 11.2506C8.71098 11.7604 9.95099 11.983 11.1893 11.8986L15.0213 15.9713L15.992 15.058L11.678 10.458C10.6532 10.6776 9.58678 10.5952 8.60798 10.2206V10.2206ZM9.13732 8.74796C9.51229 9.12229 10.0205 9.33254 10.5503 9.33254C11.0802 9.33254 11.5883 9.12229 11.9633 8.74796L16.0066 4.70063L15.0666 3.7573L11.0233 7.8053C10.8983 7.93028 10.7288 8.00049 10.552 8.00049C10.3752 8.00049 10.2057 7.93028 10.0806 7.8053L9.60798 7.33396L14.1233 2.81463L13.1813 1.8713L8.66665 6.3913L8.19598 5.91996C8.134 5.85805 8.08483 5.78452 8.05128 5.70359C8.01773 5.62266 8.00046 5.53591 8.00046 5.4483C8.00046 5.36069 8.01773 5.27393 8.05128 5.193C8.08483 5.11207 8.134 5.03854 8.19598 4.97663L12.2393 0.928629L11.2966 -0.0140381L7.25332 4.03396C6.87898 4.40948 6.66879 4.91807 6.66879 5.4483C6.66879 5.97852 6.87898 6.48711 7.25332 6.86263L7.72398 7.33396L0.0226477 15.0433L0.964648 15.986L8.66665 8.27663L9.13732 8.74796Z" fill="#0079C2"/>
</svg>
