<svg width="20" height="20" viewBox="0 0 20 20" fill="none" xmlns="http://www.w3.org/2000/svg">
<path d="M1.1192 6.03242C0.384407 4.68026 0.00235626 3.16466 0.00837071 1.62576C0.00818727 1.30456 0.103295 0.990521 0.281656 0.723394C0.460018 0.456268 0.713616 0.248058 1.01036 0.125116C1.3071 0.00217294 1.63364 -0.029976 1.94866 0.0327374C2.26367 0.0954509 2.55301 0.250208 2.78004 0.477422L7.0717 5.05159C6.81077 5.60121 6.67392 6.20151 6.67087 6.80992C6.67087 6.90409 6.6917 6.99492 6.69754 7.08826L1.67504 1.73326C1.68567 2.95451 1.99555 4.15454 2.57754 5.22825C3.5354 7.06955 4.79284 8.73871 6.29837 10.1674L5.1192 11.3508C3.4939 9.81766 2.14127 8.01922 1.1192 6.03242V6.03242ZM10.76 12.7758L9.47421 14.0633C10.8888 14.7005 12.4388 14.9787 13.9867 14.8733L18.7767 19.9641L19.99 18.8224L14.5975 13.0724C13.3166 13.347 11.9835 13.2439 10.76 12.7758V12.7758ZM11.4217 10.9349C11.8904 11.4028 12.5257 11.6656 13.188 11.6656C13.8503 11.6656 14.4855 11.4028 14.9542 10.9349L20.0084 5.87576L18.8334 4.69659L13.7792 9.75659C13.6229 9.91281 13.411 10.0006 13.19 10.0006C12.9691 10.0006 12.7571 9.91281 12.6009 9.75659L12.01 9.16742L17.6542 3.51826L16.4767 2.33909L10.8334 7.98909L10.245 7.39992C10.1676 7.32253 10.1061 7.23062 10.0642 7.12946C10.0222 7.02829 10.0006 6.91985 10.0006 6.81034C10.0006 6.70083 10.0222 6.59239 10.0642 6.49122C10.1061 6.39006 10.1676 6.29815 10.245 6.22076L15.2992 1.16076L14.1209 -0.0175781L9.06671 5.04242C8.59879 5.51181 8.33604 6.14756 8.33604 6.81034C8.33604 7.47312 8.59879 8.10886 9.06671 8.57826L9.65504 9.16742L0.0283707 18.8041L1.20587 19.9824L10.8334 10.3458L11.4217 10.9349Z" fill="white"/>
</svg>
