<svg width="20" height="20" viewBox="0 0 20 20" fill="none" xmlns="http://www.w3.org/2000/svg">
<path d="M4.24181 19.9892C4.93102 19.9892 5.48973 19.4305 5.48973 18.7413C5.48973 18.0521 4.93102 17.4934 4.24181 17.4934C3.55261 17.4934 2.9939 18.0521 2.9939 18.7413C2.9939 19.4305 3.55261 19.9892 4.24181 19.9892Z" fill="white"/>
<path d="M15.7242 19.9892C16.4134 19.9892 16.9722 19.4305 16.9722 18.7413C16.9722 18.0521 16.4134 17.4934 15.7242 17.4934C15.035 17.4934 14.4763 18.0521 14.4763 18.7413C14.4763 19.4305 15.035 19.9892 15.7242 19.9892Z" fill="white"/>
<path d="M16.9572 15.4817V1.42753V1.17336V0.0108643H15.7951H4.1734H3.01174V1.17336V1.75545V15.4817H1.53174V16.9692H18.4684V15.4817H16.9572ZM15.7951 2.33545V15.4817H4.1734V2.78336V2.33545V1.17336H5.3359H14.6338H15.7951V2.33545Z" fill="white"/>
<path d="M11.241 7.42967V6.86676V6.58009V6.24717V6.23926H10.6127H9.35726H9.24601H8.72934V6.58009V6.86676V7.03134V7.42967H7.09726H6.99059H5.99268V8.42842V8.73717V12.9763V13.2522V14.4584H13.9781V13.2518V12.9759V8.81884V8.42801V7.42926H12.9793H11.241V7.42967ZM10.7106 7.13176V7.42926H9.25893V7.13176V6.76884H9.62184H10.2464H10.3477H10.711V7.13176H10.7106Z" fill="white"/>
</svg>
