<svg width="24" height="18" viewBox="0 0 24 18" fill="none" xmlns="http://www.w3.org/2000/svg">
<path d="M23.821 8.181C22.943 6.261 19.5 0 12 0C4.49999 0 1.05699 6.261 0.178993 8.181C0.0611316 8.4383 0.00012207 8.71799 0.00012207 9.001C0.00012207 9.28401 0.0611316 9.5637 0.178993 9.821C1.05699 11.739 4.49999 18 12 18C19.5 18 22.943 11.739 23.821 9.819C23.9386 9.56199 23.9995 9.28265 23.9995 9C23.9995 8.71735 23.9386 8.43801 23.821 8.181ZM12 16C5.69299 16 2.74999 10.634 1.99999 9.011C2.74999 7.366 5.69299 2 12 2C18.292 2 21.236 7.343 22 9C21.236 10.657 18.292 16 12 16Z" fill="#C2C2C2"/>
<path d="M12 4C11.0111 4 10.0444 4.29324 9.22214 4.84265C8.39989 5.39206 7.75903 6.17295 7.38059 7.08658C7.00215 8.00021 6.90313 9.00555 7.09606 9.97545C7.28899 10.9454 7.76519 11.8363 8.46445 12.5355C9.16372 13.2348 10.0546 13.711 11.0245 13.9039C11.9944 14.0969 12.9998 13.9978 13.9134 13.6194C14.827 13.241 15.6079 12.6001 16.1573 11.7779C16.7067 10.9556 17 9.98891 17 9C16.9984 7.67441 16.4711 6.40356 15.5338 5.46622C14.5964 4.52888 13.3256 4.00159 12 4ZM12 12C11.4066 12 10.8266 11.8241 10.3333 11.4944C9.83993 11.1648 9.45541 10.6962 9.22835 10.1481C9.00129 9.59987 8.94188 8.99667 9.05763 8.41473C9.17339 7.83279 9.45911 7.29824 9.87867 6.87868C10.2982 6.45912 10.8328 6.1734 11.4147 6.05764C11.9967 5.94189 12.5999 6.0013 13.148 6.22836C13.6962 6.45542 14.1648 6.83994 14.4944 7.33329C14.824 7.82664 15 8.40666 15 9C15 9.79565 14.6839 10.5587 14.1213 11.1213C13.5587 11.6839 12.7956 12 12 12Z" fill="#C2C2C2"/>
</svg>
