<svg width="14" height="13" viewBox="0 0 14 13" fill="none" xmlns="http://www.w3.org/2000/svg">
<path d="M13.0515 0.567434C12.6632 0.204082 12.137 0 11.5883 0C11.0396 0 10.5134 0.204082 10.1251 0.567434L0.836678 9.27328C0.570686 9.52119 0.359783 9.81607 0.216171 10.1409C0.0725584 10.4657 -0.000912613 10.8139 8.55585e-06 11.1655V12.2644C8.55585e-06 12.4064 0.0601784 12.5426 0.167281 12.6429C0.274384 12.7433 0.419647 12.7997 0.571114 12.7997H1.74359C2.11867 12.8007 2.49024 12.732 2.83678 12.5975C3.18332 12.4629 3.49794 12.2653 3.76245 12.0161L13.0515 3.30969C13.439 2.9458 13.6566 2.45268 13.6566 1.93856C13.6566 1.42444 13.439 0.931322 13.0515 0.567434ZM2.95491 11.2592C2.63281 11.5591 2.1976 11.7279 1.74359 11.7292H1.14222V11.1655C1.14164 10.9546 1.18571 10.7456 1.27188 10.5507C1.35805 10.3558 1.48461 10.1789 1.64422 10.0302L8.69337 3.42317L10.0069 4.65432L2.95491 11.2592ZM12.2434 2.5528L10.8122 3.89475L9.49863 2.66628L10.9304 1.32432C11.0166 1.24366 11.119 1.17971 11.2316 1.13612C11.3442 1.09254 11.4649 1.07017 11.5867 1.07029C11.7086 1.07042 11.8292 1.09303 11.9417 1.13685C12.0542 1.18066 12.1564 1.24482 12.2425 1.32566C12.3286 1.4065 12.3968 1.50244 12.4433 1.60799C12.4898 1.71354 12.5137 1.82665 12.5135 1.94085C12.5134 2.05505 12.4893 2.1681 12.4425 2.27356C12.3958 2.37902 12.3273 2.47481 12.2411 2.55548L12.2434 2.5528Z" fill="#9A9A9A"/>
</svg>
