<svg width="20" height="18" viewBox="0 0 20 18" fill="none" xmlns="http://www.w3.org/2000/svg">
<path d="M15.8333 17.3327H4.16667C1.86917 17.3327 0 15.4635 0 13.166V4.83268C0 2.53518 1.86917 0.666016 4.16667 0.666016H15.8333C18.1308 0.666016 20 2.53518 20 4.83268V13.166C20 15.4635 18.1308 17.3327 15.8333 17.3327ZM4.16667 2.33268C2.78833 2.33268 1.66667 3.45435 1.66667 4.83268V13.166C1.66667 14.5443 2.78833 15.666 4.16667 15.666H15.8333C17.2117 15.666 18.3333 14.5443 18.3333 13.166V4.83268C18.3333 3.45435 17.2117 2.33268 15.8333 2.33268H4.16667ZM15 9.83268H11.6667C10.7475 9.83268 10 9.08518 10 8.16602V6.49935C10 5.58018 10.7475 4.83268 11.6667 4.83268H15C15.9192 4.83268 16.6667 5.58018 16.6667 6.49935V8.16602C16.6667 9.08518 15.9192 9.83268 15 9.83268ZM11.6667 6.49935V8.16602H15.0008V6.49935H11.6667ZM8.33333 8.99935C8.33333 8.53935 7.96 8.16602 7.5 8.16602H4.16667C3.70667 8.16602 3.33333 8.53935 3.33333 8.99935C3.33333 9.45935 3.70667 9.83268 4.16667 9.83268H7.5C7.96 9.83268 8.33333 9.45935 8.33333 8.99935ZM16.6667 12.3327C16.6667 11.8727 16.2933 11.4993 15.8333 11.4993H4.16667C3.70667 11.4993 3.33333 11.8727 3.33333 12.3327C3.33333 12.7927 3.70667 13.166 4.16667 13.166H15.8333C16.2933 13.166 16.6667 12.7927 16.6667 12.3327Z" fill="white"/>
</svg>
