<svg width="14" height="16" viewBox="0 0 14 16" fill="none" xmlns="http://www.w3.org/2000/svg">
<path d="M2.39335 15.9913C2.94472 15.9913 3.39169 15.5443 3.39169 14.993C3.39169 14.4416 2.94472 13.9946 2.39335 13.9946C1.84199 13.9946 1.39502 14.4416 1.39502 14.993C1.39502 15.5443 1.84199 15.9913 2.39335 15.9913Z" fill="#3ACE7E"/>
<path d="M11.5794 15.9913C12.1308 15.9913 12.5777 15.5443 12.5777 14.993C12.5777 14.4416 12.1308 13.9946 11.5794 13.9946C11.028 13.9946 10.5811 14.4416 10.5811 14.993C10.5811 15.5443 11.028 15.9913 11.5794 15.9913Z" fill="#3ACE7E"/>
<path d="M12.5657 12.3853V1.142V0.938667V0.00866699H11.636H2.33868H1.40934V0.938667V1.40433V12.3853H0.225342V13.5753H13.7747V12.3853H12.5657ZM11.636 1.86833V12.3853H2.33868V2.22667V1.86833V0.938667H3.26867H10.707H11.636V1.86833Z" fill="#3ACE7E"/>
<path d="M7.99273 5.94367V5.49333V5.264V4.99767V4.99133H7.49007H6.48573H6.39673H5.9834V5.264V5.49333V5.625V5.94367H4.67773H4.5924H3.79407V6.74267V6.98967V10.381V10.6017V11.5667H10.1824V10.6013V10.3807V7.055V6.74233V5.94333H9.3834H7.99273V5.94367ZM7.5684 5.70533V5.94333H6.40707V5.70533V5.415H6.6974H7.19707H7.27807H7.56873V5.70533H7.5684Z" fill="#3ACE7E"/>
</svg>
