<svg width="18" height="18" viewBox="0 0 18 18" fill="none" xmlns="http://www.w3.org/2000/svg">
<path d="M17.25 16.5H2.25C2.05109 16.5 1.86032 16.421 1.71967 16.2803C1.57902 16.1397 1.5 15.9489 1.5 15.75V0.75C1.5 0.551088 1.42098 0.360322 1.28033 0.21967C1.13968 0.0790176 0.948912 0 0.75 0C0.551088 0 0.360322 0.0790176 0.21967 0.21967C0.0790176 0.360322 0 0.551088 0 0.75L0 15.75C0 16.3467 0.237053 16.919 0.65901 17.341C1.08097 17.7629 1.65326 18 2.25 18H17.25C17.4489 18 17.6397 17.921 17.7803 17.7803C17.921 17.6397 18 17.4489 18 17.25C18 17.0511 17.921 16.8603 17.7803 16.7197C17.6397 16.579 17.4489 16.5 17.25 16.5Z" fill="white"/>
<path d="M11.2505 15C11.4494 15 11.6402 14.921 11.7808 14.7803C11.9215 14.6397 12.0005 14.4489 12.0005 14.25V9C12.0005 8.80109 11.9215 8.61032 11.7808 8.46967C11.6402 8.32902 11.4494 8.25 11.2505 8.25C11.0516 8.25 10.8608 8.32902 10.7202 8.46967C10.5795 8.61032 10.5005 8.80109 10.5005 9V14.25C10.5005 14.4489 10.5795 14.6397 10.7202 14.7803C10.8608 14.921 11.0516 15 11.2505 15Z" fill="white"/>
<path d="M5.25 15C5.44891 15 5.63968 14.921 5.78033 14.7803C5.92098 14.6397 6 14.4489 6 14.25V9C6 8.80109 5.92098 8.61032 5.78033 8.46967C5.63968 8.32902 5.44891 8.25 5.25 8.25C5.05109 8.25 4.86032 8.32902 4.71967 8.46967C4.57902 8.61032 4.5 8.80109 4.5 9V14.25C4.5 14.4489 4.57902 14.6397 4.71967 14.7803C4.86032 14.921 5.05109 15 5.25 15Z" fill="white"/>
<path d="M14.25 15C14.4489 15 14.6397 14.921 14.7803 14.7803C14.921 14.6397 15 14.4489 15 14.25V5.25C15 5.05109 14.921 4.86032 14.7803 4.71967C14.6397 4.57902 14.4489 4.5 14.25 4.5C14.0511 4.5 13.8603 4.57902 13.7197 4.71967C13.579 4.86032 13.5 5.05109 13.5 5.25V14.25C13.5 14.4489 13.579 14.6397 13.7197 14.7803C13.8603 14.921 14.0511 15 14.25 15Z" fill="white"/>
<path d="M8.24969 15C8.44861 15 8.63937 14.921 8.78002 14.7803C8.92068 14.6397 8.99969 14.4489 8.99969 14.25V5.25C8.99969 5.05109 8.92068 4.86032 8.78002 4.71967C8.63937 4.57902 8.44861 4.5 8.24969 4.5C8.05078 4.5 7.86002 4.57902 7.71936 4.71967C7.57871 4.86032 7.49969 5.05109 7.49969 5.25V14.25C7.49969 14.4489 7.57871 14.6397 7.71936 14.7803C7.86002 14.921 8.05078 15 8.24969 15Z" fill="white"/>
</svg>
