<svg width="16" height="20" viewBox="0 0 16 20" fill="none" xmlns="http://www.w3.org/2000/svg">
<path d="M14.5233 2.845L12.655 0.976663C12.3461 0.666087 11.9787 0.419851 11.5741 0.252206C11.1694 0.0845621 10.7355 -0.00116165 10.2975 -3.68221e-06H3C2.33696 -3.68221e-06 1.70107 0.263388 1.23223 0.732229C0.763392 1.20107 0.5 1.83696 0.5 2.5V20H15.5V5.20166C15.4978 4.31808 15.1468 3.47111 14.5233 2.845ZM13.345 4.02333C13.3869 4.0688 13.4261 4.11666 13.4625 4.16666H11.3333V2.0375C11.3833 2.07386 11.4312 2.1131 11.4767 2.155L13.345 4.02333ZM2.16667 18.3333V2.5C2.16667 2.27898 2.25446 2.06702 2.41074 1.91074C2.56702 1.75446 2.77899 1.66666 3 1.66666H9.66667V5.83333H13.8333V18.3333H2.16667ZM3.83333 13.3333H12.1667V8.33333H3.83333V13.3333ZM5.5 10H10.5V11.6667H5.5V10ZM3.83333 15H12.1667V16.6667H3.83333V15Z" fill="white"/>
</svg>
