<svg width="20" height="18" viewBox="0 0 20 18" fill="none" xmlns="http://www.w3.org/2000/svg">
<path d="M15.29 5.02496C14.1975 2.39913 11.6275 0.666626 8.75 0.666626C4.84417 0.666626 1.66667 3.84413 1.66667 7.74996C1.66667 8.20913 1.71083 8.66413 1.7975 9.11079C0.675 9.97079 0 11.3158 0 12.75C0 15.2766 1.86917 17.3333 4.16667 17.3333H13.75C17.1967 17.3333 20 14.53 20 11.0833C20 8.19413 18.0467 5.71996 15.29 5.02496ZM13.75 15.6666H4.16667C2.78833 15.6666 1.66667 14.3583 1.66667 12.75C1.66667 11.6991 2.23667 10.725 3.15333 10.2075L3.72667 9.88329L3.54417 9.24996C3.40417 8.76496 3.33333 8.25996 3.33333 7.74913C3.33333 4.76246 5.76333 2.33246 8.75 2.33246C11.075 2.33246 13.1383 3.81079 13.8817 6.01163L14.04 6.48163L14.53 6.56579C16.7342 6.94413 18.3325 8.84329 18.3325 11.0825C18.3325 13.6091 16.2758 15.6658 13.7492 15.6658L13.75 15.6666ZM11.1783 6.98829L13.9225 9.73246L12.7442 10.9108L10.8333 8.99996V14H9.16667V8.99996L7.25583 10.9108L6.0775 9.73246L8.82167 6.98829C9.47083 6.33913 10.5292 6.33913 11.1783 6.98829Z" fill="white"/>
</svg>
