<svg width="16" height="16" viewBox="0 0 16 16" fill="none" xmlns="http://www.w3.org/2000/svg">
<g clip-path="url(#clip0_958_85)">
<path d="M15.3333 12.6667V11.3333C15.3309 9.5049 14.6461 7.74319 13.4131 6.39309C12.18 5.043 10.4874 4.20174 8.66667 4.03401V3.14868C8.92086 3.00192 9.11952 2.77539 9.23184 2.50422C9.34416 2.23305 9.36387 1.9324 9.2879 1.64889C9.21193 1.36537 9.04454 1.11485 8.81168 0.936173C8.57882 0.757494 8.29351 0.660645 8 0.660645C7.70649 0.660645 7.42118 0.757494 7.18832 0.936173C6.95546 1.11485 6.78807 1.36537 6.7121 1.64889C6.63613 1.9324 6.65584 2.23305 6.76816 2.50422C6.88048 2.77539 7.07914 3.00192 7.33333 3.14868V4.03401C5.51259 4.20174 3.82001 5.043 2.58694 6.39309C1.35386 7.74319 0.669088 9.5049 0.666667 11.3333V12.6667C0.489856 12.6667 0.320286 12.7369 0.195262 12.8619C0.0702379 12.987 0 13.1565 0 13.3333C0 13.5102 0.0702379 13.6797 0.195262 13.8048C0.320286 13.9298 0.489856 14 0.666667 14H15.3333C15.5101 14 15.6797 13.9298 15.8047 13.8048C15.9298 13.6797 16 13.5102 16 13.3333C16 13.1565 15.9298 12.987 15.8047 12.8619C15.6797 12.7369 15.5101 12.6667 15.3333 12.6667ZM2 11.3333C2.31533 3.37734 13.6873 3.38334 14 11.3333V12.6667H2V11.3333Z" fill="#EDBA39"/>
</g>
<defs>
<clipPath id="clip0_958_85">
<rect width="16" height="16" fill="white"/>
</clipPath>
</defs>
</svg>
