<svg width="36" height="36" viewBox="0 0 36 36" fill="none" xmlns="http://www.w3.org/2000/svg">
<circle cx="18" cy="18" r="18" fill="#F5F5F5"/>
<g clip-path="url(#clip0_981_381)">
<path d="M21.3333 16.6927C18.7607 16.6927 16.6667 18.786 16.6667 21.3593C16.6667 23.918 18.7607 26 21.3333 26C23.906 26 26 23.9067 26 21.3333C26 18.7747 23.906 16.6927 21.3333 16.6927ZM21.3333 24.6667C19.4953 24.6667 18 23.1827 18 21.3593C18 19.5213 19.4953 18.026 21.3333 18.026C23.1713 18.026 24.6667 19.51 24.6667 21.3333C24.6667 23.1713 23.1713 24.6667 21.3333 24.6667ZM22.4713 21.5287C22.732 21.7893 22.732 22.2107 22.4713 22.4713C22.3413 22.6013 22.1707 22.6667 22 22.6667C21.8293 22.6667 21.6587 22.6013 21.5287 22.4713L20.862 21.8047C20.7367 21.6793 20.6667 21.51 20.6667 21.3333V20C20.6667 19.632 20.9647 19.3333 21.3333 19.3333C21.702 19.3333 22 19.632 22 20V21.0573L22.4713 21.5287ZM26 14.6667V16C26 16.368 25.702 16.6667 25.3333 16.6667C24.9647 16.6667 24.6667 16.368 24.6667 16V14.6667C24.6667 13.564 23.7693 12.6667 22.6667 12.6667H13.3333C12.2307 12.6667 11.3333 13.564 11.3333 14.6667V15.3333H17.3333C17.7013 15.3333 18 15.632 18 16C18 16.368 17.7013 16.6667 17.3333 16.6667H11.3333V22.6667C11.3333 23.7693 12.2307 24.6667 13.3333 24.6667H16C16.368 24.6667 16.6667 24.9653 16.6667 25.3333C16.6667 25.7013 16.368 26 16 26H13.3333C11.4953 26 10 24.5047 10 22.6667V14.6667C10 12.8287 11.4953 11.3333 13.3333 11.3333H14V10.6667C14 10.2987 14.2987 10 14.6667 10C15.0347 10 15.3333 10.2987 15.3333 10.6667V11.3333H20.6667V10.6667C20.6667 10.2987 20.9647 10 21.3333 10C21.702 10 22 10.2987 22 10.6667V11.3333H22.6667C24.5047 11.3333 26 12.8287 26 14.6667Z" fill="#2C2C2C"/>
</g>
<defs>
<clipPath id="clip0_981_381">
<rect width="16" height="16" fill="white" transform="translate(10 10)"/>
</clipPath>
</defs>
</svg>
